<?xml version="1.0" encoding="UTF-8"?>
<svg version="1.1" xmlns="http://www.w3.org/2000/svg" width="512" height="512">
<path d="M0 0 C4.27376751 2.77501014 7.64077503 6.28616174 11.11035156 9.98876953 C12.51666372 11.45735381 13.92550349 12.923522 15.33691406 14.38720703 C16.03397461 15.11069336 16.73103516 15.83417969 17.44921875 16.57958984 C19.27277945 18.40140133 21.13667126 20.08185949 23.10253906 21.74658203 C30.4656234 28.0580553 37.11484737 35.19193254 43.93115234 42.08007812 C53.03114065 51.31568019 53.03114065 51.31568019 62.64746094 60.00292969 C66.44090565 63.32773684 69.94006186 66.96636178 73.48535156 70.55126953 C77.44535156 74.54220703 77.44535156 74.54220703 81.48535156 78.61376953 C81.81535156 69.37376953 82.14535156 60.13376953 82.48535156 50.61376953 C79.51535156 49.95376953 76.54535156 49.29376953 73.48535156 48.61376953 C70.2162137 45.97063679 68.0020161 43.52123531 66.48535156 39.61376953 C66.27064726 37.1098483 66.15758202 34.71956917 66.14941406 32.21533203 C66.14275726 31.50275238 66.13610046 30.79017273 66.12924194 30.05599976 C66.11913868 28.55151949 66.1144242 27.04699462 66.11474609 25.54248047 C66.11037868 23.25298346 66.07405557 20.96542501 66.03613281 18.67626953 C66.03026273 17.21013025 66.02629462 15.74398186 66.02441406 14.27783203 C66.01004303 13.59951324 65.995672 12.92119446 65.98086548 12.22232056 C66.02847862 7.21343385 67.26926674 4.41216315 70.48535156 0.61376953 C75.18049675 -3.21411728 78.90295244 -3.96332492 84.7980957 -3.88793945 C86.01631264 -3.89604393 86.01631264 -3.89604393 87.25914001 -3.90431213 C89.92997248 -3.91676746 92.59972032 -3.90033165 95.27050781 -3.88232422 C97.13325558 -3.88247927 98.99600367 -3.8839692 100.85874939 -3.88673401 C104.75664587 -3.88811652 108.65417373 -3.87558358 112.55200195 -3.8527832 C117.54447252 -3.82437929 122.53633175 -3.82714324 127.52884769 -3.83987331 C131.37305409 -3.84683245 135.21711952 -3.83903884 139.06130791 -3.82661629 C140.90207821 -3.82210547 142.74286367 -3.82176176 144.58363533 -3.82568169 C147.15673921 -3.82859672 149.72900418 -3.81207404 152.30200195 -3.7902832 C153.43909103 -3.79703568 153.43909103 -3.79703568 154.59915161 -3.80392456 C159.07086636 -3.74110011 161.94562889 -3.16737778 165.48535156 -0.38623047 C169.02676971 4.57501717 170.08849525 8.40835751 170.01660156 14.52392578 C170.02042847 15.25445663 170.02425537 15.98498749 170.02819824 16.73765564 C170.03090282 18.27132559 170.02364407 19.80504282 170.00683594 21.33862305 C169.98537031 23.67422956 170.00669915 26.00677194 170.03222656 28.34228516 C170.02958363 29.84033875 170.02445935 31.33839046 170.01660156 32.83642578 C170.02469849 33.52720718 170.03279541 34.21798859 170.0411377 34.92970276 C169.94537146 39.92480703 168.58873712 42.75212153 165.48535156 46.61376953 C161.65109628 49.61899665 158.24390964 50.00570056 153.48535156 50.61376953 C153.51153564 51.22897461 153.53771973 51.84417969 153.56469727 52.47802734 C153.66881077 55.27301361 153.73371905 58.06759211 153.79785156 60.86376953 C153.83974609 61.83185547 153.88164062 62.79994141 153.92480469 63.79736328 C154.04873181 70.98513643 154.04873181 70.98513643 151.09082031 74.28564453 C148.48535156 75.61376953 148.48535156 75.61376953 146.48535156 75.61376953 C146.48535156 81.88376953 146.48535156 88.15376953 146.48535156 94.61376953 C148.13535156 95.27376953 149.78535156 95.93376953 151.48535156 96.61376953 C153.48535156 98.61376953 153.48535156 98.61376953 153.68307495 100.70968628 C153.66020416 101.57506012 153.63733337 102.44043396 153.61376953 103.33203125 C153.59490692 104.31420624 153.57604431 105.29638123 153.55661011 106.30831909 C153.53051666 107.37591461 153.50442322 108.44351013 153.47753906 109.54345703 C153.45884242 111.80645457 153.44332238 114.06948016 153.43066406 116.33251953 C153.40426121 119.899838 153.36107069 123.46270119 153.26269531 127.02880859 C152.27180171 142.1896024 152.27180171 142.1896024 158.44984436 155.33192444 C160.99338252 157.67166825 163.64543861 159.63799355 166.48535156 161.61376953 C167.7813008 162.70838243 169.06363248 163.81954052 170.32519531 164.95361328 C170.94894043 165.48583496 171.57268555 166.01805664 172.21533203 166.56640625 C178.06577058 171.84300097 183.50775979 177.57801407 189.04785156 183.17626953 C191.60866375 185.76389316 194.17292085 188.34803265 196.73925781 190.93017578 C197.31237198 191.51158829 197.88548615 192.09300079 198.47596741 192.69203186 C201.85348222 196.08967596 205.33638617 199.26990179 209.02456665 202.32872009 C214.10039631 206.79391685 217.11471975 213.69077436 217.73925781 220.30126953 C218.07567237 228.80930232 216.22715383 235.14564732 211.79785156 242.36376953 C205.05530455 248.92408554 198.45291443 252.06121741 189.11035156 252.92626953 C180.08280271 252.14803256 172.92994909 249.05836706 166.48535156 242.61376953 C166.48535156 312.57376953 166.48535156 382.53376953 166.48535156 454.61376953 C170.44535156 456.09876953 170.44535156 456.09876953 174.48535156 457.61376953 C179.07572705 462.43954889 179.6589005 465.80093118 179.72363281 472.25439453 C179.73170456 473.01419617 179.73977631 473.7739978 179.74809265 474.55682373 C179.76193294 476.16741658 179.77265535 477.77803875 179.78051758 479.38867188 C179.79768916 481.84058063 179.8415679 484.29112613 179.88574219 486.74267578 C179.89587312 488.30907213 179.90438797 489.87547994 179.91113281 491.44189453 C179.9286409 492.17023499 179.94614899 492.89857544 179.96418762 493.64898682 C179.94247435 498.79843311 178.81846827 501.71071585 175.48535156 505.61376953 C171.59835456 508.4627273 168.85888664 508.98971167 164.07721043 508.99408627 C162.77513222 509.00252621 161.47305402 509.01096615 160.1315189 509.01966184 C158.68830985 509.0138667 157.24510192 509.00778568 155.80189514 509.00144958 C154.26742632 509.00562202 152.73296057 509.01109904 151.19850057 509.0177694 C146.97993422 509.03225461 142.76156272 509.02796972 138.54298556 509.02060258 C133.99415847 509.01588081 129.44537414 509.02837196 124.89656067 509.03862 C115.98437735 509.05583272 107.07226445 509.0566429 98.16006882 509.05140709 C90.91766858 509.04736882 83.67528918 509.04880487 76.43288994 509.05415535 C75.40286534 509.05490377 74.37284075 509.05565219 73.31160329 509.0564233 C71.21924134 509.05795474 69.1268794 509.05949309 67.03451746 509.06103826 C47.40443015 509.07477221 27.77438268 509.06931929 8.14429628 509.05785305 C-9.82184909 509.04791933 -27.78789149 509.06086216 -45.75402098 509.08478724 C-64.19376133 509.10915836 -82.63345368 509.11879103 -101.07320982 509.11213452 C-111.42890737 509.10863792 -121.78452571 509.11090337 -132.14021111 509.12838554 C-140.95564281 509.14308267 -149.77093951 509.14377561 -158.58636849 509.12631463 C-163.08534812 509.11778176 -167.58408634 509.11571067 -172.08305359 509.13096619 C-176.20051765 509.1447554 -180.31753218 509.14012498 -184.43496985 509.12072695 C-185.92549468 509.11694883 -187.41605502 509.11994085 -188.90654837 509.1303386 C-190.93121881 509.14345986 -192.95601049 509.12957093 -194.98066616 509.11434078 C-196.10572518 509.11423345 -197.2307842 509.11412611 -198.38993591 509.11401552 C-203.15537435 508.35110007 -206.33214278 506.05624208 -209.36254883 502.35961914 C-210.86265487 498.78435051 -210.96377454 495.49471386 -210.94824219 491.68017578 C-210.95348404 490.92461899 -210.95872589 490.16906219 -210.96412659 489.39060974 C-210.97052914 487.79793523 -210.96923268 486.20521332 -210.96069336 484.61254883 C-210.95218594 482.1869615 -210.98096078 479.76373374 -211.01269531 477.33837891 C-211.01430773 475.78564523 -211.01372902 474.23290742 -211.01074219 472.68017578 C-211.02197617 471.96124649 -211.03321014 471.2423172 -211.04478455 470.50160217 C-210.97498971 465.41159931 -209.70909818 462.53554832 -206.51464844 458.61376953 C-203.39405523 456.35133946 -201.30914531 455.56239375 -197.51464844 454.61376953 C-197.51464844 384.65376953 -197.51464844 314.69376953 -197.51464844 242.61376953 C-199.82464844 244.59376953 -202.13464844 246.57376953 -204.51464844 248.61376953 C-213.44892042 253.08090552 -221.51272642 253.75620986 -231.02246094 250.64892578 C-239.62533965 247.07562977 -243.93442093 241.0199605 -247.82714844 232.86376953 C-249.7136972 223.945539 -249.16509555 215.55610617 -244.51464844 207.61376953 C-241.18156146 203.1303251 -237.40203413 199.35818439 -233.15527344 195.75048828 C-226.42504547 189.91350817 -220.27699716 183.44212042 -214.01464844 177.11376953 C-199.78523414 162.73438399 -199.78523414 162.73438399 -193.69238281 157.56884766 C-187.88513364 152.35534414 -182.50223508 146.65919272 -177.01464844 141.11376953 C-162.75600802 126.70484984 -162.75600802 126.70484984 -156.66113281 121.53759766 C-151.03569807 116.495693 -145.82535882 110.98262638 -140.51464844 105.61376953 C-126.81653721 91.76567898 -126.81653721 91.76567898 -122.54589844 88.14501953 C-115.97829565 82.56954398 -110.06935143 76.23228621 -104.01464844 70.11376953 C-89.78523414 55.73438399 -89.78523414 55.73438399 -83.69238281 50.56884766 C-77.88513364 45.35534414 -72.50223508 39.65919272 -67.01464844 34.11376953 C-52.32125233 19.26551204 -52.32125233 19.26551204 -46.12109375 14.01513672 C-43.61710553 11.83080657 -41.41078047 9.41363973 -39.13964844 6.98876953 C-28.14679663 -4.14080457 -14.20825696 -7.62573179 0 0 Z " fill="#020101" transform="translate(271.5146484375,3.38623046875)"/>
<path d="M0 0 C3.245613 1.42074324 5.3626159 3.13762681 7.828125 5.66796875 C8.54613281 6.39693359 9.26414062 7.12589844 10.00390625 7.87695312 C10.74511719 8.63943359 11.48632812 9.40191406 12.25 10.1875 C18.25890735 16.36322877 18.25890735 16.36322877 24.640625 22.14453125 C31.99039434 28.45818979 38.63549096 35.58422135 45.44580078 42.46630859 C53.49378856 50.72605785 53.49378856 50.72605785 62 58.5 C69.25718634 64.6526628 75.75925401 71.70928881 82.44580078 78.46630859 C90.49378856 86.72605785 90.49378856 86.72605785 99 94.5 C106.25718634 100.6526628 112.75925401 107.70928881 119.44580078 114.46630859 C121.34715567 116.38591342 123.25163664 118.30237899 125.15625 120.21875 C126.00817932 121.08312683 126.00817932 121.08312683 126.87731934 121.96496582 C132.45461667 127.5755072 138.1911084 132.75707696 144.68637908 137.29483044 C154.63315837 144.40641706 164.66819471 152.98662332 167.46021271 165.37711334 C169.85095401 179.81815516 169.07391529 194.71352198 168.63624239 209.28186274 C168.4719695 215.68585831 168.45830319 222.09028587 168.42758179 228.49606323 C168.35634466 239.21862305 168.19478887 249.93528232 167.96142578 260.65527344 C167.72165265 271.68139877 167.5384807 282.70616375 167.42822266 293.734375 C167.42125472 294.42445027 167.41428679 295.11452553 167.40710771 295.82551217 C167.34694922 301.83102125 167.29098803 307.83656776 167.23543739 313.84212112 C166.99208428 339.56606432 166.47387896 365.27687778 166 391 C108.58 391 51.16 391 -8 391 C-8.03867187 368.47363281 -8.03867187 368.47363281 -8.078125 345.4921875 C-8.10328269 335.99477851 -8.12944349 326.49738996 -8.16015625 317 C-8.20874848 301.91569141 -8.25317154 286.83145083 -8.27099609 271.74707031 C-8.28399537 260.76211458 -8.310916 249.7772967 -8.35461307 238.7924186 C-8.37726654 232.97501439 -8.39290834 227.15778045 -8.39188385 221.34032822 C-8.39113954 215.86557659 -8.40899827 210.39120191 -8.44116783 204.91654778 C-8.44969151 202.90661398 -8.45140009 200.89663803 -8.44580269 198.88669395 C-8.43917849 196.14267903 -8.45704544 193.39986894 -8.48101807 190.65597534 C-8.47325765 189.8602442 -8.46549723 189.06451305 -8.45750165 188.24466884 C-8.53780103 183.0540904 -9.61499686 180.14383376 -13 176 C-17.37185684 172.27316315 -21.83862372 172.54767434 -27.31640625 172.56640625 C-28.20988266 172.5611644 -29.10335907 172.55592255 -30.02391052 172.55052185 C-31.90744998 172.54411438 -33.79102952 172.54542211 -35.67456055 172.55395508 C-38.55654892 172.56248239 -41.43656577 172.533659 -44.31835938 172.50195312 C-46.15104107 172.50034139 -47.98372628 172.50091811 -49.81640625 172.50390625 C-51.10714806 172.48705528 -51.10714806 172.48705528 -52.42396545 172.46986389 C-56.28648044 172.51490815 -58.35422308 172.54865842 -61.58178711 174.80444336 C-63.34302402 177.0724295 -63.34302402 177.0724295 -62.875 180.625 C-62.29259286 184.04542055 -62.29259286 184.04542055 -60 186 C-57.20783209 186.24569272 -54.50759395 186.37363138 -51.7109375 186.4140625 C-50.89251373 186.43342865 -50.07408997 186.4527948 -49.23086548 186.4727478 C-46.61235024 186.53261082 -43.99379119 186.57895532 -41.375 186.625 C-39.60154314 186.66317364 -37.82810495 186.70222501 -36.0546875 186.7421875 C-31.70322115 186.83997326 -27.35195773 186.91948666 -23 187 C-23 194.26 -23 201.52 -23 209 C-56.66 209 -90.32 209 -125 209 C-125 201.74 -125 194.48 -125 187 C-122.36386719 186.97421875 -119.72773438 186.9484375 -117.01171875 186.921875 C-114.45993345 186.88346729 -111.90835109 186.83830314 -109.35668945 186.79248047 C-107.58269939 186.76424721 -105.80858299 186.74304437 -104.03442383 186.72900391 C-101.48452968 186.70760619 -98.93615834 186.66097565 -96.38671875 186.609375 C-95.59287277 186.60814636 -94.79902679 186.60691772 -93.98112488 186.60565186 C-89.57468023 186.50132727 -89.57468023 186.50132727 -85.96801758 184.18847656 C-84.49163021 180.85068681 -85.10199339 178.46373976 -86 175 C-89.01993539 172.98670974 -89.6224707 172.74616642 -93.0090332 172.70947266 C-93.81029129 172.69671295 -94.61154938 172.68395325 -95.43708801 172.67080688 C-96.29960678 172.66858124 -97.16212555 172.66635559 -98.05078125 172.6640625 C-98.94234421 172.6574057 -99.83390717 172.6507489 -100.75248718 172.64389038 C-102.63957659 172.63376431 -104.52670181 172.62907335 -106.41381836 172.62939453 C-109.29145936 172.6250319 -112.16755335 172.58874191 -115.04492188 172.55078125 C-116.8802031 172.54491085 -118.7154916 172.54094295 -120.55078125 172.5390625 C-121.83545036 172.51750595 -121.83545036 172.51750595 -123.14607239 172.49551392 C-128.57594545 172.53672622 -131.71540622 173.35060416 -136 177 C-138.55142816 180.82714224 -138.2890404 183.93463157 -138.2784729 188.37113953 C-138.2842653 189.23533235 -138.2900577 190.09952517 -138.29602563 190.98990566 C-138.31308179 193.89654676 -138.31590696 196.80302963 -138.31884766 199.7097168 C-138.32814196 201.78895459 -138.33830988 203.86818863 -138.34928894 205.94741821 C-138.37665915 211.60201094 -138.39175912 217.25657866 -138.40471697 222.91122031 C-138.42031685 228.81696689 -138.44711703 234.72266216 -138.4727478 240.62837219 C-138.51959137 251.81615711 -138.55630845 263.00395162 -138.58942068 274.19178468 C-138.6276027 286.92683105 -138.67702309 299.66182597 -138.72740483 312.39682901 C-138.83080763 338.59784862 -138.91964219 364.79890046 -139 391 C-147.58 391 -156.16 391 -165 391 C-165.18088506 361.69123696 -165.32409486 332.38255965 -165.40852264 303.07335287 C-165.41852818 299.61245892 -165.42888277 296.1515661 -165.43945312 292.69067383 C-165.44155161 292.00167799 -165.44365009 291.31268215 -165.44581217 290.60280765 C-165.48061455 279.44936988 -165.54368619 268.29626228 -165.61722237 257.14302032 C-165.69205845 245.69708551 -165.73587629 234.25141855 -165.75270796 222.80523211 C-165.76314377 216.3766148 -165.78769362 209.9487461 -165.84584045 203.52036858 C-165.90012375 197.47012917 -165.91689589 191.42094701 -165.90486145 185.37048721 C-165.90706314 183.14965253 -165.92298797 180.92878267 -165.9536438 178.70815849 C-165.99346931 175.67461892 -165.98388011 172.64506724 -165.96203613 169.61143494 C-165.99699023 168.29380619 -165.99699023 168.29380619 -166.03265047 166.94955868 C-165.95904929 163.16700064 -165.76139427 160.89550201 -163.25957394 157.95302498 C-161.24133879 156.18064585 -159.16319473 154.58957367 -157 153 C-155.98458422 152.05954996 -154.98776473 151.09840044 -154.015625 150.11328125 C-152.58757545 148.66707852 -151.15928827 147.22110459 -149.72753906 145.77856445 C-148.14917288 144.1881815 -146.57414991 142.59455555 -145 141 C-133.42714605 129.27712757 -133.42714605 129.27712757 -129.15625 125.65625 C-122.55656769 120.0247029 -116.59771439 113.6619814 -110.5 107.5 C-96.24135958 93.09108031 -96.24135958 93.09108031 -90.14648438 87.92382812 C-84.52104963 82.88192347 -79.31071039 77.36885685 -74 72 C-60.30188877 58.15190945 -60.30188877 58.15190945 -56.03125 54.53125 C-49.46364722 48.95577444 -43.55470299 42.61851668 -37.5 36.5 C-22.86510918 21.71086441 -22.86510918 21.71086441 -16.77539062 16.54833984 C-13.34978378 13.56082629 -10.19177127 10.29551682 -7 7.0625 C-6.32066406 6.37865234 -5.64132813 5.69480469 -4.94140625 4.99023438 C-3.29191641 3.32912841 -1.6448332 1.66571487 0 0 Z " fill="#DEE9F8" transform="translate(255,68)"/>
<path d="M0 0 C1.08363831 -0.00700928 2.16727661 -0.01401855 3.28375244 -0.02124023 C6.85870131 -0.03881687 10.43285585 -0.02719789 14.0078125 -0.01367188 C16.49593253 -0.01636686 18.98405154 -0.02024934 21.47216797 -0.02526855 C27.35106387 -0.03191762 33.22967244 -0.01793745 39.10852623 0.00333452 C43.79186809 0.01835284 48.47487374 0.01303985 53.15820312 -0.00390625 C59.62316631 -0.0270964 66.0878048 -0.0307266 72.55279541 -0.01768494 C75.01515784 -0.01501785 77.47753412 -0.01828675 79.93988037 -0.02760315 C83.38216746 -0.03776917 86.82341525 -0.02226518 90.265625 0 C91.79005219 -0.01214539 91.79005219 -0.01214539 93.34527588 -0.02453613 C99.10731818 0.04446003 102.63765279 0.54329516 107.1328125 4.51757812 C110.56779205 8.06396548 110.50958599 10.92286839 110.51376343 15.76048279 C110.5184434 16.49132853 110.52312337 17.22217427 110.52794516 17.97516686 C110.53991445 20.42495385 110.5304306 22.87418343 110.52099609 25.32397461 C110.52506098 27.07997972 110.53040239 28.83598228 110.53692627 30.59197998 C110.55061656 35.36265149 110.54529388 40.13312862 110.53578901 44.90380359 C110.5282001 49.89429424 110.535236 54.88476811 110.53994751 59.8752594 C110.54540781 68.2574462 110.53820678 76.63955374 110.52392578 85.02172852 C110.50760407 94.7136284 110.5128832 104.40533891 110.529405 114.09723419 C110.54301839 122.41581196 110.54494008 130.73433271 110.53708899 139.05291802 C110.53241099 144.02234982 110.53179102 148.99169261 110.54169846 153.9611187 C110.5503635 158.63395425 110.54435462 163.30654568 110.52701569 167.97935486 C110.52304815 169.69462745 110.52418946 171.40992058 110.53080368 173.12518501 C110.53899898 175.46629748 110.5287225 177.80662725 110.51376343 180.14768982 C110.51263235 181.45789313 110.51150127 182.76809645 110.51033592 184.11800289 C109.9712844 188.97212872 107.87121772 192.40224044 104.1328125 195.51757812 C101.27268041 196.47095549 99.48392476 196.64730546 96.51577759 196.65802002 C95.09423119 196.66658524 95.09423119 196.66658524 93.64396667 196.67532349 C92.08697807 196.67700027 92.08697807 196.67700027 90.49853516 196.67871094 C89.40397507 196.68367584 88.30941498 196.68864075 87.1816864 196.6937561 C83.55340959 196.70838568 79.92517648 196.71518073 76.296875 196.72070312 C73.7796529 196.72645347 71.26243081 196.73221122 68.74520874 196.73797607 C64.13947802 196.74714396 59.53375988 196.75344365 54.92802107 196.75647283 C48.15259267 196.76095373 41.37736599 196.7785049 34.60199893 196.80747342 C28.73030872 196.83170546 22.85868577 196.83941764 16.98694992 196.84114838 C14.49025753 196.84417878 11.99356607 196.85222027 9.49690628 196.86533356 C6.00640766 196.88235954 2.51640203 196.88052208 -0.97412109 196.87402344 C-2.525037 196.88784561 -2.525037 196.88784561 -4.10728455 196.90194702 C-13.26857555 196.8484291 -13.26857555 196.8484291 -16.8671875 193.51757812 C-20.23387276 188.45849167 -21.36783281 185.23887402 -21.37512207 179.03453064 C-21.38136203 178.31407785 -21.387602 177.59362505 -21.39403105 176.85134035 C-21.40989471 174.45450859 -21.3973838 172.05870324 -21.38476562 169.66186523 C-21.39018967 167.93659373 -21.39731392 166.21132686 -21.40600586 164.48606873 C-21.42420719 159.8125597 -21.41718526 155.13940474 -21.40448952 150.46588969 C-21.39434694 145.57063912 -21.40375854 140.67541842 -21.41003418 135.78016663 C-21.41730623 127.5613156 -21.40773377 119.34260847 -21.38867188 111.1237793 C-21.36689675 101.62548484 -21.37396093 92.12753376 -21.3959775 82.62924761 C-21.41413545 74.46854082 -21.4166881 66.30793732 -21.40622282 58.14721686 C-21.39999101 53.275582 -21.39914385 48.40410851 -21.41236877 43.53248405 C-21.42393266 38.95310086 -21.41589177 34.37416006 -21.39279175 29.7948246 C-21.38750784 28.11544911 -21.38901302 26.43603631 -21.39784241 24.75667572 C-21.40879444 22.46183046 -21.39504046 20.16839753 -21.37512207 17.87364197 C-21.37361397 16.59037993 -21.37210587 15.3071179 -21.37055206 13.98496914 C-20.60844072 8.73521934 -18.15008107 5.68661946 -14.29638672 2.17492676 C-9.47607944 -0.15475116 -5.28936383 -0.04214131 0 0 Z " fill="#020304" transform="translate(285.8671875,239.482421875)"/>
<path d="M0 0 C33.33 0 66.66 0 101 0 C101 55.44 101 110.88 101 168 C67.67 168 34.34 168 0 168 C0 112.56 0 57.12 0 0 Z " fill="#AA6A50" transform="translate(131,291)"/>
<path d="M0 0 C4.38041683 1.85597291 7.37719867 4.02289631 10.6796875 7.421875 C11.52660156 8.28296875 12.37351562 9.1440625 13.24609375 10.03125 C14.11363281 10.9284375 14.98117187 11.825625 15.875 12.75 C22.58946972 19.71489554 22.58946972 19.71489554 29.7265625 26.234375 C37.05692302 32.50490215 43.66582463 39.61487472 50.44580078 46.46630859 C58.49378856 54.72605785 58.49378856 54.72605785 67 62.5 C74.25718634 68.6526628 80.75925401 75.70928881 87.44580078 82.46630859 C96.39630164 91.5412084 96.39630164 91.5412084 105.85351562 100.07617188 C112.137458 105.70827673 117.94072289 111.89627825 123.87304688 117.89355469 C131.69770782 125.91778924 131.69770782 125.91778924 139.96875 133.46875 C147.23360612 139.63614913 153.74836072 146.69828071 160.44580078 153.46630859 C162.34715567 155.38591342 164.25163664 157.30237899 166.15625 159.21875 C166.72420288 159.79500122 167.29215576 160.37125244 167.87731934 160.96496582 C170.80745373 163.91256558 173.79826988 166.73019198 176.94360352 169.44799805 C181.05359596 173.00249783 184.91089757 176.76624232 188.74609375 180.61328125 C189.44267593 181.30890671 190.13925812 182.00453217 190.85694885 182.72123718 C192.31267999 184.17629346 193.7671718 185.63259063 195.22045898 187.09008789 C197.45247268 189.32750895 199.68984135 191.55947677 201.92773438 193.79101562 C203.34667534 195.21061654 204.76530654 196.63052717 206.18359375 198.05078125 C206.85329697 198.71846024 207.52300018 199.38613922 208.21299744 200.0740509 C208.82776443 200.69197006 209.44253143 201.30988922 210.07592773 201.9465332 C210.8891172 202.76091606 210.8891172 202.76091606 211.71873474 203.5917511 C214.64640933 206.80958167 214.4460421 210.21398785 214.421875 214.3828125 C213.73288992 218.65707177 211.33018946 221.3504332 208 224 C204.32806676 225.22397775 200.80297686 225.72596231 197 225 C192.86596371 222.47504961 189.48471105 219.71630375 186.1015625 216.26171875 C184.76351562 214.90723633 184.76351562 214.90723633 183.3984375 213.52539062 C182.02558594 212.12063477 182.02558594 212.12063477 180.625 210.6875 C173.64472852 203.4896938 173.64472852 203.4896938 166.2421875 196.73828125 C158.92221178 190.47765375 152.32408822 183.37493181 145.55419922 176.53369141 C137.50621144 168.27394215 137.50621144 168.27394215 129 160.5 C121.74281366 154.3473372 115.24074599 147.29071119 108.55419922 140.53369141 C100.50621144 132.27394215 100.50621144 132.27394215 92 124.5 C84.74281366 118.3473372 78.24074599 111.29071119 71.55419922 104.53369141 C62.60369836 95.4587916 62.60369836 95.4587916 53.14648438 86.92382812 C46.862542 81.29172327 41.05927711 75.10372175 35.12695312 69.10644531 C26.17723713 60.03451183 26.17723713 60.03451183 16.72167969 51.49902344 C13.69906881 48.86731176 10.92400888 45.99033611 8.125 43.125 C3.51997295 38.05400663 3.51997295 38.05400663 -2.625 35.5 C-10.75648681 36.70466471 -17.15633561 46.07689408 -22.72460938 51.76025391 C-25.5667992 54.64700486 -28.44074918 57.41111479 -31.53125 60.03125 C-38.21309553 65.79900876 -44.29546306 72.2300702 -50.5 78.5 C-64.75864042 92.90891969 -64.75864042 92.90891969 -70.85351562 98.07617188 C-76.47895037 103.11807653 -81.68928961 108.63114315 -87 114 C-100.69811123 127.84809055 -100.69811123 127.84809055 -104.96875 131.46875 C-111.53635278 137.04422556 -117.44529701 143.38148332 -123.5 149.5 C-137.7294143 163.87938554 -137.7294143 163.87938554 -143.82226562 169.04492188 C-149.6295148 174.25842539 -155.01241336 179.95457681 -160.5 185.5 C-175.06790183 200.22144057 -175.06790183 200.22144057 -181.21533203 205.42919922 C-185.47609093 209.17936649 -189.33825658 213.38323287 -193.26367188 217.47851562 C-193.93333984 218.16236328 -194.60300781 218.84621094 -195.29296875 219.55078125 C-195.8861792 220.16606689 -196.47938965 220.78135254 -197.09057617 221.4152832 C-200.88476936 224.56425494 -205.01925263 225.55418875 -209.93359375 225.4609375 C-213.79806565 224.59891919 -216.42056654 221.88597483 -219 219 C-220.17006856 216.65986288 -220.33836406 214.98542048 -220.5 212.375 C-220.60828125 211.14910156 -220.60828125 211.14910156 -220.71875 209.8984375 C-218.94591889 202.74930334 -210.93601323 196.78640075 -205.81640625 191.68359375 C-204.82760719 190.6933596 -204.82760719 190.6933596 -203.8188324 189.68312073 C-202.43603165 188.29964494 -201.05198924 186.91740917 -199.66674805 185.53637695 C-197.56769657 183.44268331 -195.4740406 181.34370126 -193.38085938 179.24414062 C-192.02636214 177.89030429 -190.67155469 176.53677825 -189.31640625 175.18359375 C-188.70156876 174.56673203 -188.08673126 173.9498703 -187.45326233 173.3143158 C-184.37877169 170.25604637 -181.25095994 167.31195978 -177.97045898 164.47485352 C-174.19646337 161.210855 -170.65755733 157.77121481 -167.15625 154.21875 C-166.54285767 153.60157104 -165.92946533 152.98439209 -165.29748535 152.34851074 C-163.36249942 150.40145962 -161.43082595 148.45117593 -159.5 146.5 C-145.24135958 132.09108031 -145.24135958 132.09108031 -139.14648438 126.92382812 C-133.52104963 121.88192347 -128.31071039 116.36885685 -123 111 C-109.30115027 97.15116286 -109.30115027 97.15116286 -105.0625 93.5625 C-98.30575735 87.82645677 -92.23021958 81.29351644 -86 75 C-71.17992835 60.02936158 -71.17992835 60.02936158 -65.12890625 54.90625 C-59.50747731 49.87275032 -54.3046419 44.36272192 -49 39 C-34.9802085 24.82670713 -34.9802085 24.82670713 -28.80664062 19.58837891 C-24.51966854 15.8193194 -20.62109824 11.61598322 -16.6484375 7.52148438 C-15.97554687 6.83763672 -15.30265625 6.15378906 -14.609375 5.44921875 C-14.01092773 4.83393311 -13.41248047 4.21864746 -12.79589844 3.5847168 C-8.72394123 -0.00841456 -5.39040035 -0.46468969 0 0 Z " fill="#FC4655" transform="translate(259,15)"/>
<path d="M0 0 C3.33018799 1.44782691 5.49895042 3.26442935 8.0390625 5.84375 C8.78414062 6.59527344 9.52921875 7.34679687 10.296875 8.12109375 C11.06515625 8.90613281 11.8334375 9.69117187 12.625 10.5 C13.40101563 11.28503906 14.17703125 12.07007812 14.9765625 12.87890625 C16.41194779 14.33173546 17.84527222 15.78660567 19.27587891 17.24414062 C20.51113219 18.50213292 21.75332537 19.75332537 23 21 C20.50434749 23.52516805 18.00267549 26.04429373 15.5 28.5625 C14.80390625 29.26697266 14.1078125 29.97144531 13.390625 30.69726562 C10.13264455 33.97032932 6.86518613 37.16306494 3.34375 40.15234375 C-3.12266274 45.7214384 -9.00266975 51.93700555 -15 58 C-28.69811123 71.84809055 -28.69811123 71.84809055 -32.96875 75.46875 C-39.53635278 81.04422556 -45.44529701 87.38148332 -51.5 93.5 C-65.7294143 107.87938554 -65.7294143 107.87938554 -71.82226562 113.04492188 C-77.6295148 118.25842539 -83.01241336 123.95457681 -88.5 129.5 C-103.19636124 144.35125388 -103.19636124 144.35125388 -109.2421875 149.48242188 C-112.55302661 152.34077964 -115.64570134 155.42109438 -118.75 158.5 C-119.39582031 159.12519531 -120.04164063 159.75039062 -120.70703125 160.39453125 C-123.69696433 163.35990636 -126.23313059 166.1179749 -128.2578125 169.828125 C-130.30155538 173.54902011 -132.42239657 174.82232835 -136 177 C-138.55142816 180.82714224 -138.2890404 183.93463157 -138.2784729 188.37113953 C-138.2842653 189.23533235 -138.2900577 190.09952517 -138.29602563 190.98990566 C-138.31308179 193.89654676 -138.31590696 196.80302963 -138.31884766 199.7097168 C-138.32814196 201.78895459 -138.33830988 203.86818863 -138.34928894 205.94741821 C-138.37665915 211.60201094 -138.39175912 217.25657866 -138.40471697 222.91122031 C-138.42031685 228.81696689 -138.44711703 234.72266216 -138.4727478 240.62837219 C-138.51959137 251.81615711 -138.55630845 263.00395162 -138.58942068 274.19178468 C-138.6276027 286.92683105 -138.67702309 299.66182597 -138.72740483 312.39682901 C-138.83080763 338.59784862 -138.91964219 364.79890046 -139 391 C-147.58 391 -156.16 391 -165 391 C-165.18088506 361.69123696 -165.32409486 332.38255965 -165.40852264 303.07335287 C-165.41852818 299.61245892 -165.42888277 296.1515661 -165.43945312 292.69067383 C-165.44155161 292.00167799 -165.44365009 291.31268215 -165.44581217 290.60280765 C-165.48061455 279.44936988 -165.54368619 268.29626228 -165.61722237 257.14302032 C-165.69205845 245.69708551 -165.73587629 234.25141855 -165.75270796 222.80523211 C-165.76314377 216.3766148 -165.78769362 209.9487461 -165.84584045 203.52036858 C-165.90012375 197.47012917 -165.91689589 191.42094701 -165.90486145 185.37048721 C-165.90706314 183.14965253 -165.92298797 180.92878267 -165.9536438 178.70815849 C-165.99346931 175.67461892 -165.98388011 172.64506724 -165.96203613 169.61143494 C-165.99699023 168.29380619 -165.99699023 168.29380619 -166.03265047 166.94955868 C-165.95904929 163.16700064 -165.76139427 160.89550201 -163.25957394 157.95302498 C-161.24133879 156.18064585 -159.16319473 154.58957367 -157 153 C-155.98458422 152.05954996 -154.98776473 151.09840044 -154.015625 150.11328125 C-152.58757545 148.66707852 -151.15928827 147.22110459 -149.72753906 145.77856445 C-148.14917288 144.1881815 -146.57414991 142.59455555 -145 141 C-133.42714605 129.27712757 -133.42714605 129.27712757 -129.15625 125.65625 C-122.55656769 120.0247029 -116.59771439 113.6619814 -110.5 107.5 C-96.24135958 93.09108031 -96.24135958 93.09108031 -90.14648438 87.92382812 C-84.52104963 82.88192347 -79.31071039 77.36885685 -74 72 C-60.30188877 58.15190945 -60.30188877 58.15190945 -56.03125 54.53125 C-49.46364722 48.95577444 -43.55470299 42.61851668 -37.5 36.5 C-22.86510918 21.71086441 -22.86510918 21.71086441 -16.77539062 16.54833984 C-13.34978378 13.56082629 -10.19177127 10.29551682 -7 7.0625 C-6.32066406 6.37865234 -5.64132813 5.69480469 -4.94140625 4.99023438 C-3.29191641 3.32912841 -1.6448332 1.66571487 0 0 Z " fill="#ADD6F6" transform="translate(255,68)"/>
<path d="M0 0 C118.8 0 237.6 0 360 0 C360 7.59 360 15.18 360 23 C241.2 23 122.4 23 0 23 C0 15.41 0 7.82 0 0 Z " fill="#42CA8D" transform="translate(76,474)"/>
<path d="M0 0 C8.80129056 6.63761416 16.38796853 15.30206969 24.125 23.125 C32.79381897 32.0568733 32.79381897 32.0568733 41.9609375 40.4609375 C49.22771635 46.63200879 55.74563976 53.69553107 62.44580078 60.46630859 C71.39630164 69.5412084 71.39630164 69.5412084 80.85351562 78.07617188 C87.137458 83.70827673 92.94072289 89.89627825 98.87304688 95.89355469 C106.69770782 103.91778924 106.69770782 103.91778924 114.96875 111.46875 C122.23360612 117.63614913 128.74836072 124.69828071 135.44580078 131.46630859 C137.34715567 133.38591342 139.25163664 135.30237899 141.15625 137.21875 C141.72420288 137.79500122 142.29215576 138.37125244 142.87731934 138.96496582 C145.80745373 141.91256558 148.79826988 144.73019198 151.94360352 147.44799805 C156.05359596 151.00249783 159.91089757 154.76624232 163.74609375 158.61328125 C164.44267593 159.30890671 165.13925812 160.00453217 165.85694885 160.72123718 C167.31267999 162.17629346 168.7671718 163.63259063 170.22045898 165.09008789 C172.45247268 167.32750895 174.68984135 169.55947677 176.92773438 171.79101562 C178.34667534 173.21061654 179.76530654 174.63052717 181.18359375 176.05078125 C181.85329697 176.71846024 182.52300018 177.38613922 183.21299744 178.0740509 C184.13514793 179.00092964 184.13514793 179.00092964 185.07592773 179.9465332 C185.61805405 180.48945511 186.16018036 181.03237701 186.71873474 181.5917511 C189.64640933 184.80958167 189.4460421 188.21398785 189.421875 192.3828125 C188.73288992 196.65707177 186.33018946 199.3504332 183 202 C179.32806676 203.22397775 175.80297686 203.72596231 172 203 C167.86596371 200.47504961 164.48471105 197.71630375 161.1015625 194.26171875 C159.76351562 192.90723633 159.76351562 192.90723633 158.3984375 191.52539062 C157.48320312 190.58888672 156.56796875 189.65238281 155.625 188.6875 C148.64472852 181.4896938 148.64472852 181.4896938 141.2421875 174.73828125 C133.92221178 168.47765375 127.32408822 161.37493181 120.55419922 154.53369141 C112.50621144 146.27394215 112.50621144 146.27394215 104 138.5 C96.74281366 132.3473372 90.24074599 125.29071119 83.55419922 118.53369141 C75.50621144 110.27394215 75.50621144 110.27394215 67 102.5 C59.74281366 96.3473372 53.24074599 89.29071119 46.55419922 82.53369141 C37.60369836 73.4587916 37.60369836 73.4587916 28.14648438 64.92382812 C21.862542 59.29172327 16.05927711 53.10372175 10.12695312 47.10644531 C1.16606304 38.02112711 1.16606304 38.02112711 -8.30078125 29.47216797 C-11.17700506 26.98026717 -13.83266307 24.27406573 -16.5 21.5625 C-17.03625 21.02173828 -17.5725 20.48097656 -18.125 19.92382812 C-19.41904036 18.61823383 -20.70988174 17.30947004 -22 16 C-6.56649318 -2.44492279 -6.56649318 -2.44492279 0 0 Z " fill="#FC646D" transform="translate(284,37)"/>
<path d="M0 0 C33.33 0 66.66 0 101 0 C101 55.44 101 110.88 101 168 C67.67 168 34.34 168 0 168 C0 112.56 0 57.12 0 0 Z M30 1 C30 55.78 30 110.56 30 167 C53.1 167 76.2 167 100 167 C100 112.22 100 57.44 100 1 C76.9 1 53.8 1 30 1 Z " fill="#925842" transform="translate(131,291)"/>
<path d="M0 0 C13.53 0 27.06 0 41 0 C41.3125 10.3125 41.3125 10.3125 41.38793945 13.55200195 C41.42105225 14.39722412 41.45416504 15.24244629 41.48828125 16.11328125 C41.51446533 16.97735596 41.54064941 17.84143066 41.56762695 18.73168945 C42.09359254 21.4910041 42.79278257 22.30467384 45 24 C46.32 24.66 47.64 25.32 49 26 C49 32.27 49 38.54 49 45 C47.02 45.99 45.04 46.98 43 48 C41.44504302 51.10991396 41.75923044 54.43344049 41.68359375 57.8515625 C41.66281265 58.62559418 41.64203156 59.39962585 41.62062073 60.19711304 C41.55516552 62.67298392 41.49625913 65.14896202 41.4375 67.625 C41.39431093 69.30209448 41.35069652 70.97917807 41.30664062 72.65625 C41.19948829 76.77072308 41.09820955 80.88530414 41 85 C29.5532242 75.26687635 18.81739718 64.93357745 8.27246094 54.2355957 C7.09538574 53.0458313 7.09538574 53.0458313 5.89453125 51.83203125 C5.19175049 51.11764893 4.48896973 50.4032666 3.76489258 49.66723633 C2.09101291 47.92504089 2.09101291 47.92504089 0 47 C0 31.49 0 15.98 0 0 Z " fill="#514B52" transform="translate(369,53)"/>
<path d="M0 0 C14.19 0 28.38 0 43 0 C43 19.14 43 38.28 43 58 C28.81 58 14.62 58 0 58 C0 38.86 0 19.72 0 0 Z " fill="#5EB4F8" transform="translate(338,291)"/>
<path d="M0 0 C14.19 0 28.38 0 43 0 C43 19.14 43 38.28 43 58 C28.81 58 14.62 58 0 58 C0 38.86 0 19.72 0 0 Z " fill="#22A3F6" transform="translate(280,291)"/>
<path d="M0 0 C14.19 0 28.38 0 43 0 C43 18.81 43 37.62 43 57 C28.81 57 14.62 57 0 57 C0 38.19 0 19.38 0 0 Z " fill="#5FB6FB" transform="translate(338,364)"/>
<path d="M0 0 C14.19 0 28.38 0 43 0 C43 18.81 43 37.62 43 57 C28.81 57 14.62 57 0 57 C0 38.19 0 19.38 0 0 Z " fill="#22A5FA" transform="translate(280,364)"/>
<path d="M0 0 C1.18722656 -0.01015137 1.18722656 -0.01015137 2.3984375 -0.02050781 C3.70554687 -0.03210938 3.70554687 -0.03210938 5.0390625 -0.04394531 C6.39257812 -0.00914062 6.39257812 -0.00914062 7.7734375 0.02636719 C8.67578125 0.00316406 9.578125 -0.02003906 10.5078125 -0.04394531 C11.37921875 -0.03621094 12.250625 -0.02847656 13.1484375 -0.02050781 C13.93992188 -0.01374023 14.73140625 -0.00697266 15.546875 0 C17.7734375 0.77636719 17.7734375 0.77636719 19.53222656 3.77587891 C21.55317317 7.17794147 21.55317317 7.17794147 25.62402344 7.54931641 C27.16811697 7.59012066 28.71328259 7.5988639 30.2578125 7.58105469 C31.07340637 7.59476105 31.88900024 7.60846741 32.72930908 7.62258911 C35.32791216 7.65990587 37.92460441 7.65617361 40.5234375 7.65136719 C42.28779031 7.66949299 44.0521178 7.69029532 45.81640625 7.71386719 C50.13653383 7.77076445 54.4516563 7.77212182 58.7734375 7.77636719 C58.7734375 15.03636719 58.7734375 22.29636719 58.7734375 29.77636719 C25.1134375 29.77636719 -8.5465625 29.77636719 -43.2265625 29.77636719 C-43.2265625 22.51636719 -43.2265625 15.25636719 -43.2265625 7.77636719 C-40.60203125 7.77378906 -37.9775 7.77121094 -35.2734375 7.76855469 C-32.72820297 7.74573165 -30.18329039 7.71271496 -27.63818359 7.67871094 C-25.87100838 7.66055614 -24.10369122 7.65298152 -22.33642578 7.65625 C-19.79348052 7.65910885 -17.25347533 7.62378299 -14.7109375 7.58105469 C-13.92225281 7.59014862 -13.13356812 7.59924255 -12.32098389 7.60861206 C-9.78959671 7.60565188 -9.78959671 7.60565188 -6.2265625 6.77636719 C-1.57523138 0.54925831 -1.57523138 0.54925831 0 0 Z " fill="#BA7B62" transform="translate(173.2265625,247.2236328125)"/>
<path d="M0 0 C33.66 0 67.32 0 102 0 C102 7.26 102 14.52 102 22 C68.34 22 34.68 22 0 22 C0 14.74 0 7.48 0 0 Z " fill="#22A7FD" transform="translate(280,255)"/>
<path d="M0 0 C23.76 0 47.52 0 72 0 C72 7.59 72 15.18 72 23 C48.24 23 24.48 23 0 23 C0 15.41 0 7.82 0 0 Z " fill="#7B6C79" transform="translate(354,15)"/>
<path d="M0 0 C5.21808044 3.26938137 8.87383811 7.18517623 11.625 12.6875 C12.98372608 19.75287561 13.34794884 25.74557887 9.875 32.25 C6.29888919 37.47662348 2.24472161 40.82413449 -3.75 42.9375 C-9.88909016 43.94717029 -15.67839826 44.0350966 -21.1875 40.875 C-26.19491762 37.13796317 -31.30094344 32.16844322 -32.75 25.9375 C-33.7534586 18.26722738 -32.2756968 12.24736573 -27.75 5.9375 C-20.02758243 -1.59808488 -10.11049882 -5.19187777 0 0 Z " fill="#030201" transform="translate(208.75,344.0625)"/>
<path d="M0 0 C6.6 0 13.2 0 20 0 C20.375 8.75 20.375 8.75 20.47802734 11.48730469 C20.5136377 12.20821289 20.54924805 12.92912109 20.5859375 13.671875 C20.63306885 14.77160645 20.63306885 14.77160645 20.68115234 15.89355469 C21.06466839 18.42722734 21.51577918 19.891042 23 22 C24.98 22.99 26.96 23.98 29 25 C29 31.27 29 37.54 29 44 C27.02 44.99 25.04 45.98 23 47 C21.03233737 49.77594967 20.72198122 52.19113 20.5859375 55.546875 C20.54726563 56.39121094 20.50859375 57.23554687 20.46875 58.10546875 C20.42234375 59.41451172 20.42234375 59.41451172 20.375 60.75 C20.33632813 61.63816406 20.29765625 62.52632812 20.2578125 63.44140625 C20.16379127 65.6273998 20.07813857 67.81339062 20 70 C15.84477124 66.47227406 11.70661508 62.93881902 7.75 59.1875 C6.91984375 58.41792969 6.0896875 57.64835937 5.234375 56.85546875 C-0.0397237 50.11531814 -0.42973414 42.56132327 -0.29296875 34.27734375 C-0.28872391 33.29125626 -0.28447906 32.30516876 -0.28010559 31.28919983 C-0.26345171 28.17167651 -0.2258248 25.0548245 -0.1875 21.9375 C-0.17243597 19.81055628 -0.15875059 17.68360232 -0.14648438 15.55664062 C-0.11615685 10.37063356 -0.05741025 5.18605898 0 0 Z " fill="#685C66" transform="translate(389,54)"/>
<path d="M0 0 C12.54 0 25.08 0 38 0 C38 7.59 38 15.18 38 23 C25.46 23 12.92 23 0 23 C0 15.41 0 7.82 0 0 Z " fill="#00B965" transform="translate(76,474)"/>
<path d="M0 0 C33.66 0 67.32 0 102 0 C102 7.26 102 14.52 102 22 C68.34 22 34.68 22 0 22 C0 14.74 0 7.48 0 0 Z M30 1 C30 7.6 30 14.2 30 21 C53.43 21 76.86 21 101 21 C101 14.4 101 7.8 101 1 C77.57 1 54.14 1 30 1 Z " fill="#0586E1" transform="translate(280,255)"/>
<path d="M0 0 C11.22 0 22.44 0 34 0 C33.01 0.33 32.02 0.66 31 1 C31 7.6 31 14.2 31 21 C54.1 21 77.2 21 101 21 C101 14.07 101 7.14 101 0 C101.33 0 101.66 0 102 0 C102 7.26 102 14.52 102 22 C68.34 22 34.68 22 0 22 C0 14.74 0 7.48 0 0 Z " fill="#9D624B" transform="translate(130,255)"/>
<path d="M0 0 C4.29 0 8.58 0 13 0 C13 18.81 13 37.62 13 57 C8.71 57 4.42 57 0 57 C0 38.19 0 19.38 0 0 Z " fill="#5EB7FE" transform="translate(310,364)"/>
<path d="M0 0 C4.29 0 8.58 0 13 0 C13 18.81 13 37.62 13 57 C8.71 57 4.42 57 0 57 C0 38.19 0 19.38 0 0 Z " fill="#5EB7FD" transform="translate(310,292)"/>
<path d="M0 0 C23.76 0 47.52 0 72 0 C72 7.59 72 15.18 72 23 C71.67 23 71.34 23 71 23 C71 15.74 71 8.48 71 1 C54.17 1 37.34 1 20 1 C20 8.26 20 15.52 20 23 C13.4 23 6.8 23 0 23 C0 15.41 0 7.82 0 0 Z " fill="#6A5D68" transform="translate(354,15)"/>
<path d="M0 0 C1.9375 1.125 1.9375 1.125 3 3 C3.49573337 6.89504791 3.58016848 9.09493717 1.4375 12.4375 C-1.96719488 14.61999672 -4.03430012 14.63734462 -8 14 C-10.5 11.9375 -10.5 11.9375 -12 9 C-12 5.19715329 -11.7968187 2.98069994 -9.375 0 C-5.91616747 -1.45635054 -3.58701629 -0.91305869 0 0 Z " fill="#D5E0EE" transform="translate(203,358)"/>
</svg>
